<?xml version="1.0" encoding="UTF-8"?>
<svg version="1.1" xmlns="http://www.w3.org/2000/svg" width="90" height="90">
<path d="M0 0 C4.18185421 3.52587708 8.19095875 7.07553326 12 11 C10.46563424 14.65564739 8.25017578 16.98698623 5.4375 19.75 C4.63183594 20.54921875 3.82617188 21.3484375 2.99609375 22.171875 C1 24 1 24 0 24 C0 21.03 0 18.06 0 15 C-1.95901454 15.11382653 -3.9172338 15.24141125 -5.875 15.375 C-7.51082031 15.47941406 -7.51082031 15.47941406 -9.1796875 15.5859375 C-12.13046474 15.73253491 -12.13046474 15.73253491 -14 18 C-15.875 18.265625 -15.875 18.265625 -18 18.25 C-19.051875 18.25773437 -19.051875 18.25773437 -20.125 18.265625 C-22 18 -22 18 -24 16 C-26.82870249 15.68008294 -26.82870249 15.68008294 -30 15.75 C-31.0725 15.74484375 -32.145 15.7396875 -33.25 15.734375 C-36.14362178 15.71972351 -36.14362178 15.71972351 -38 18 C-39.875 18.265625 -39.875 18.265625 -42 18.25 C-43.051875 18.25773437 -43.051875 18.25773437 -44.125 18.265625 C-46 18 -46 18 -48 16 C-50.82870249 15.68008294 -50.82870249 15.68008294 -54 15.75 C-55.0725 15.74484375 -56.145 15.7396875 -57.25 15.734375 C-60.14362178 15.71972351 -60.14362178 15.71972351 -62 18 C-63.875 18.265625 -63.875 18.265625 -66 18.25 C-67.051875 18.25773437 -67.051875 18.25773437 -68.125 18.265625 C-70 18 -70 18 -72 16 C-72.265625 14.125 -72.265625 14.125 -72.25 12 C-72.25515625 11.29875 -72.2603125 10.5975 -72.265625 9.875 C-72 8 -72 8 -70 6 C-68.125 5.734375 -68.125 5.734375 -66 5.75 C-65.29875 5.74484375 -64.5975 5.7396875 -63.875 5.734375 C-62 6 -62 6 -60 8 C-57.17129751 8.31991706 -57.17129751 8.31991706 -54 8.25 C-52.9275 8.25515625 -51.855 8.2603125 -50.75 8.265625 C-47.85637822 8.28027649 -47.85637822 8.28027649 -46 6 C-44.125 5.734375 -44.125 5.734375 -42 5.75 C-41.29875 5.74484375 -40.5975 5.7396875 -39.875 5.734375 C-38 6 -38 6 -36 8 C-33.17129751 8.31991706 -33.17129751 8.31991706 -30 8.25 C-28.9275 8.25515625 -27.855 8.2603125 -26.75 8.265625 C-23.85637822 8.28027649 -23.85637822 8.28027649 -22 6 C-20.125 5.734375 -20.125 5.734375 -18 5.75 C-17.29875 5.74484375 -16.5975 5.7396875 -15.875 5.734375 C-14 6 -14 6 -12 8 C-9.10776497 8.46396693 -9.10776497 8.46396693 -5.875 8.625 C-4.23144531 8.73714844 -4.23144531 8.73714844 -2.5546875 8.8515625 C-1.29011719 8.92503906 -1.29011719 8.92503906 0 9 C0 6.03 0 3.06 0 0 Z " fill="#000000" transform="translate(75,60)"/>
<path d="M0 0 C1.98 0 3.96 0 6 0 C6 1.98 6 3.96 6 6 C6.78375 6.28875 7.5675 6.5775 8.375 6.875 C11 8 11 8 13 10 C13 11.32 13 12.64 13 14 C11.02 14 9.04 14 7 14 C7 13.34 7 12.68 7 12 C5.02 12 3.04 12 1 12 C1 12.99 1 13.98 1 15 C1.68707031 15.17015625 2.37414062 15.3403125 3.08203125 15.515625 C3.98308594 15.75796875 4.88414063 16.0003125 5.8125 16.25 C6.70582031 16.48203125 7.59914063 16.7140625 8.51953125 16.953125 C11.44848127 18.18928028 12.48385165 19.22544851 14 22 C14.29590664 24.80304291 13.84840638 27.31812481 13 30 C11.125 32 11.125 32 9 33 C8.01 33 7.02 33 6 33 C6 34.98 6 36.96 6 39 C4.02 39 2.04 39 0 39 C0 37.02 0 35.04 0 33 C-0.763125 32.9175 -1.52625 32.835 -2.3125 32.75 C-5 32 -5 32 -6.8125 30.125 C-8 28 -8 28 -8 25 C-5.69 25 -3.38 25 -1 25 C-1 25.66 -1 26.32 -1 27 C1.31 27 3.62 27 6 27 C6 26.01 6 25.02 6 24 C5.31292969 23.81824219 4.62585938 23.63648437 3.91796875 23.44921875 C3.01691406 23.19785156 2.11585937 22.94648437 1.1875 22.6875 C0.29417969 22.44386719 -0.59914063 22.20023438 -1.51953125 21.94921875 C-4.11831141 20.95472492 -5.35980775 20.22938753 -7 18 C-7.64551623 12.91655969 -7.64551623 12.91655969 -7 10 C-4.625 7.5 -4.625 7.5 -2 6 C-1.34 6 -0.68 6 0 6 C0 4.02 0 2.04 0 0 Z " fill="#000000" transform="translate(69,12)"/>
<path d="M0 0 C1.98 0 3.96 0 6 0 C6 1.98 6 3.96 6 6 C6.78375 6.28875 7.5675 6.5775 8.375 6.875 C11 8 11 8 13 10 C13 11.32 13 12.64 13 14 C11.02 14 9.04 14 7 14 C7 13.34 7 12.68 7 12 C5.02 12 3.04 12 1 12 C1 12.99 1 13.98 1 15 C1.68707031 15.17015625 2.37414063 15.3403125 3.08203125 15.515625 C3.98308594 15.75796875 4.88414063 16.0003125 5.8125 16.25 C6.70582031 16.48203125 7.59914063 16.7140625 8.51953125 16.953125 C11.44848127 18.18928028 12.48385165 19.22544851 14 22 C14.29590664 24.80304291 13.84840638 27.31812481 13 30 C11.125 32 11.125 32 9 33 C8.01 33 7.02 33 6 33 C6 34.98 6 36.96 6 39 C4.02 39 2.04 39 0 39 C0 37.02 0 35.04 0 33 C-0.763125 32.9175 -1.52625 32.835 -2.3125 32.75 C-5 32 -5 32 -6.8125 30.125 C-8 28 -8 28 -8 25 C-5.69 25 -3.38 25 -1 25 C-1 25.66 -1 26.32 -1 27 C1.31 27 3.62 27 6 27 C6 26.01 6 25.02 6 24 C5.31292969 23.81824219 4.62585937 23.63648437 3.91796875 23.44921875 C3.01691406 23.19785156 2.11585937 22.94648437 1.1875 22.6875 C0.29417969 22.44386719 -0.59914063 22.20023438 -1.51953125 21.94921875 C-4.11831141 20.95472492 -5.35980775 20.22938753 -7 18 C-7.64551623 12.91655969 -7.64551623 12.91655969 -7 10 C-4.625 7.5 -4.625 7.5 -2 6 C-1.34 6 -0.68 6 0 6 C0 4.02 0 2.04 0 0 Z " fill="#000000" transform="translate(42,12)"/>
<path d="M0 0 C1.98 0 3.96 0 6 0 C6 1.98 6 3.96 6 6 C6.78375 6.28875 7.5675 6.5775 8.375 6.875 C11 8 11 8 13 10 C13 11.32 13 12.64 13 14 C11.02 14 9.04 14 7 14 C7 13.34 7 12.68 7 12 C5.02 12 3.04 12 1 12 C1 12.99 1 13.98 1 15 C1.68707031 15.17015625 2.37414063 15.3403125 3.08203125 15.515625 C3.98308594 15.75796875 4.88414063 16.0003125 5.8125 16.25 C6.70582031 16.48203125 7.59914063 16.7140625 8.51953125 16.953125 C11.44848127 18.18928028 12.48385165 19.22544851 14 22 C14.29590664 24.80304291 13.84840638 27.31812481 13 30 C11.125 32 11.125 32 9 33 C8.01 33 7.02 33 6 33 C6 34.98 6 36.96 6 39 C4.02 39 2.04 39 0 39 C0 37.02 0 35.04 0 33 C-0.763125 32.9175 -1.52625 32.835 -2.3125 32.75 C-5 32 -5 32 -6.8125 30.125 C-8 28 -8 28 -8 25 C-5.69 25 -3.38 25 -1 25 C-1 25.66 -1 26.32 -1 27 C1.31 27 3.62 27 6 27 C6 26.01 6 25.02 6 24 C5.31292969 23.81824219 4.62585937 23.63648437 3.91796875 23.44921875 C3.01691406 23.19785156 2.11585937 22.94648437 1.1875 22.6875 C0.29417969 22.44386719 -0.59914063 22.20023438 -1.51953125 21.94921875 C-4.11831141 20.95472492 -5.35980775 20.22938753 -7 18 C-7.64551623 12.91655969 -7.64551623 12.91655969 -7 10 C-4.625 7.5 -4.625 7.5 -2 6 C-1.34 6 -0.68 6 0 6 C0 4.02 0 2.04 0 0 Z " fill="#000000" transform="translate(15,12)"/>
</svg>
